<?xml version="1.0" encoding="utf-8"?>
<!-- Generator: Adobe Illustrator 26.0.2, SVG Export Plug-In . SVG Version: 6.00 Build 0)  -->
<svg version="1.1" id="Capa_1" xmlns="http://www.w3.org/2000/svg" xmlns:xlink="http://www.w3.org/1999/xlink" x="0px" y="0px"
	 viewBox="0 0 400 400" style="enable-background:new 0 0 400 400;" xml:space="preserve">
<style type="text/css">
	.st0{fill:#FFFFFF;}
</style>
<g>
	<polygon class="st0" points="238.96,187.34 238.96,213.15 238.96,238.96 264.77,238.96 264.77,213.15 264.77,187.34 264.77,161.54 
		238.96,161.54 	"/>
	<polygon class="st0" points="213.15,161.54 238.96,161.54 238.96,135.73 213.15,135.73 187.35,135.73 161.54,135.73 161.54,161.54 
		187.35,161.54 	"/>
	<polygon class="st0" points="161.54,187.34 161.54,161.54 135.73,161.54 135.73,187.34 135.73,213.15 135.73,238.96 161.54,238.96 
		161.54,213.15 	"/>
	<polygon class="st0" points="367.99,161.54 342.19,161.54 342.19,135.73 316.38,135.73 316.38,161.54 316.38,187.34 342.19,187.34 
		367.99,187.34 367.99,213.15 342.19,213.15 316.38,213.15 316.38,238.96 316.38,264.77 342.19,264.77 342.19,238.96 367.99,238.96 
		393.8,238.96 393.8,213.15 393.8,187.34 393.8,161.54 	"/>
	<polygon class="st0" points="316.38,109.92 342.19,109.92 342.19,84.12 342.19,58.32 316.38,58.32 290.57,58.32 290.57,84.12 
		316.38,84.12 	"/>
	<polygon class="st0" points="290.57,316.39 290.57,342.18 316.38,342.18 342.19,342.18 342.19,316.39 342.19,290.58 316.38,290.58 
		316.38,316.39 	"/>
	<rect x="290.57" y="264.77" class="st0" width="25.81" height="25.81"/>
	<rect x="290.57" y="109.92" class="st0" width="25.81" height="25.81"/>
	<rect x="264.77" y="290.58" class="st0" width="25.8" height="25.81"/>
	<rect x="264.77" y="84.12" class="st0" width="25.8" height="25.8"/>
	<polygon class="st0" points="213.15,316.39 213.15,342.18 213.15,367.99 187.35,367.99 187.35,342.18 187.35,316.39 161.54,316.39 
		135.73,316.39 135.73,342.18 161.54,342.18 161.54,367.99 161.54,393.79 187.35,393.79 213.15,393.79 238.96,393.79 238.96,367.99 
		238.96,342.18 264.77,342.18 264.77,316.39 238.96,316.39 	"/>
	<polygon class="st0" points="187.35,238.96 161.54,238.96 161.54,264.77 187.35,264.77 213.15,264.77 238.96,264.77 238.96,238.96 
		213.15,238.96 	"/>
	<polygon class="st0" points="187.35,84.12 187.35,58.32 187.35,32.51 213.15,32.51 213.15,58.32 213.15,84.12 238.96,84.12 
		264.77,84.12 264.77,58.32 238.96,58.32 238.96,32.51 238.96,6.71 213.15,6.71 187.35,6.71 161.54,6.71 161.54,32.51 161.54,58.32 
		135.73,58.32 135.73,84.12 161.54,84.12 	"/>
	<rect x="109.93" y="290.58" class="st0" width="25.8" height="25.81"/>
	<rect x="109.93" y="84.12" class="st0" width="25.8" height="25.8"/>
	<rect x="84.12" y="264.77" class="st0" width="25.81" height="25.81"/>
	<rect x="84.12" y="109.92" class="st0" width="25.81" height="25.81"/>
	<polygon class="st0" points="109.93,84.12 109.93,58.32 84.12,58.32 58.31,58.32 58.31,84.12 58.31,109.92 84.12,109.92 
		84.12,84.12 	"/>
	<polygon class="st0" points="84.12,290.58 58.31,290.58 58.31,316.39 58.31,342.18 84.12,342.18 109.93,342.18 109.93,316.39 
		84.12,316.39 	"/>
	<polygon class="st0" points="84.12,213.15 58.31,213.15 32.51,213.15 32.51,187.34 58.31,187.34 84.12,187.34 84.12,161.54 
		84.12,135.73 58.31,135.73 58.31,161.54 32.51,161.54 6.7,161.54 6.7,187.34 6.7,213.15 6.7,238.96 32.51,238.96 58.31,238.96 
		58.31,264.77 84.12,264.77 84.12,238.96 	"/>
</g>
</svg>
