<svg width="56" height="56" viewBox="0 0 56 56" fill="none" xmlns="http://www.w3.org/2000/svg">
<circle cx="28" cy="28" r="28" fill="#CFBACD"/>
<rect x="12.7039" y="15.1666" width="6.74074" height="3.37037" fill="#914D8B"/>
<rect x="9.3335" y="18.537" width="13.4815" height="3.37037" fill="#914D8B"/>
<rect x="19.4448" y="21.9073" width="3.37037" height="3.37037" fill="#914D8B"/>
<rect x="9.3335" y="21.9073" width="3.37037" height="3.37037" fill="#914D8B"/>
<rect x="12.7039" y="28.6481" width="30.3333" height="3.37037" fill="#914D8B"/>
<rect x="36.2964" y="15.1666" width="6.74074" height="3.37037" fill="#914D8B"/>
<rect x="32.926" y="18.537" width="13.4815" height="3.37037" fill="#914D8B"/>
<rect x="43.0374" y="21.9073" width="3.37037" height="3.37037" fill="#914D8B"/>
<rect x="32.926" y="21.9073" width="3.37037" height="3.37037" fill="#914D8B"/>
<rect x="22.8152" y="42.1295" width="3.37037" height="3.37037" fill="#914D8B"/>
<rect x="26.1853" y="42.1295" width="3.37037" height="3.37037" fill="#914D8B"/>
<rect x="29.5557" y="42.1295" width="3.37037" height="3.37037" fill="#914D8B"/>
<rect x="16.0742" y="35.3888" width="23.5926" height="3.37037" fill="#914D8B"/>
<rect x="19.4448" y="38.7592" width="16.8519" height="3.37037" fill="#914D8B"/>
<rect x="12.7039" y="32.0185" width="30.3333" height="3.37037" fill="#914D8B"/>
</svg>
